<svg id="Layer_1" data-name="Layer 1" xmlns="http://www.w3.org/2000/svg" viewBox="0 0 500 500"><path d="M444.85,397.21a84.52,84.52,0,0,1-47.91,47.92c-32.32,12.25-110.31,10-147.08,10-35.65,0-114.76,2.23-147.07-10a84.51,84.51,0,0,1-47.92-47.92c-12.25-33.42-10-111.42-10-147.07,0-36.77-2.23-114.76,10-147.08a84.52,84.52,0,0,1,47.92-47.91c33.42-13.37,111.42-10,147.07-10,36.77,0,114.76-2.23,147.08,10a84.53,84.53,0,0,1,47.91,47.91c13.37,32.32,10,110.31,10,147.08C454.87,285.79,458.22,364.9,444.85,397.21Zm53.48-250.69c-2.23-39-11.14-74.65-41.23-103.62-29-30.09-64.62-39-103.62-41.23-41.22-2.23-164.9-2.23-206.13,0C107.24,3.9,71.59,12.81,42.62,41.78c-30.09,30.09-39,64.63-40.11,104.74-3.35,41.22-3.35,164.9,0,206.13,1.11,40.11,10,75.76,40.11,104.73,29,29,64.62,39,104.73,40.11,41.23,3.35,164.91,3.35,206.13,0,39-1.11,74.65-10,103.62-40.11,30.09-29,39-64.62,41.23-104.73C500.56,311.42,500.56,187.74,498.33,146.52Zm-84.68-30.09a30.09,30.09,0,1,0-30.08,30.09A30,30,0,0,0,413.65,116.43ZM249.86,333.7c-45.68,0-83.56-37.88-83.56-83.56s37.88-83.57,83.56-83.57,83.57,37.89,83.57,83.57S295.54,333.7,249.86,333.7Zm0-211.69c-70.19,0-128.13,56.82-128.13,128.13,0,70.19,57.94,128.13,128.13,128.13,71.31,0,128.13-57.94,128.13-128.13A127.44,127.44,0,0,0,249.86,122Z"/></svg>