<svg width="265" height="201" viewBox="0 0 265 201" fill="none" xmlns="http://www.w3.org/2000/svg">
<path fill-rule="evenodd" clip-rule="evenodd" d="M0 0.384399V4.26536H13.5463V51.6294H21.3897V4.26536H34.9398V0.384399H0Z" fill="#BB892A"/>
<path fill-rule="evenodd" clip-rule="evenodd" d="M85.1952 0.384399V24.0664H60.8355V0.384399H52.9884V51.6294H60.8355V27.9474H85.1952V51.6294H93.0349V0.384399H85.1952Z" fill="#BB892A"/>
<path fill-rule="evenodd" clip-rule="evenodd" d="M112.138 0.384399V51.6294H143.116V47.7484H119.978V27.9474H139.931V24.0664H119.978V4.26536H141.483V0.384399H112.138Z" fill="#BB892A"/>
<path fill-rule="evenodd" clip-rule="evenodd" d="M89.6247 125.512L57.2476 82.1064V125.123H52.9778V73.8779H60.5842L88.773 111.691V73.8779H93.0428V125.512H89.6247Z" fill="#BB892A"/>
<path fill-rule="evenodd" clip-rule="evenodd" d="M199.416 125.512L167.038 82.1064V125.123H162.769V73.8779H170.375L198.564 111.691V73.8779H202.834V125.512H199.416Z" fill="#BB892A"/>
<path fill-rule="evenodd" clip-rule="evenodd" d="M255.242 120.076C251.824 123.879 246.699 125.898 240.492 125.898C226.746 125.898 217.973 115.106 217.973 100.042C217.973 85.0586 226.668 73.101 241.655 73.101C251.906 73.101 258.816 78.615 260.212 88.3174H257.105C255.627 80.9443 250.195 76.9819 242.51 76.9819C232.49 76.9819 226.283 83.507 226.283 100.042C226.283 117.591 233.112 122.328 241.266 122.328C246.388 122.328 250.895 120.539 253.613 117.047V106.256H245.069V102.371H261.375V125.124H258.038C258.038 122.25 256.56 121.083 255.242 120.076Z" fill="#BB892A"/>
<path fill-rule="evenodd" clip-rule="evenodd" d="M15.2965 158.296C15.2965 163.188 17.6258 165.751 25.2359 169.402C34.7087 173.902 39.1341 177.397 39.1341 185.396C39.1341 193.547 32.4572 199.368 22.3622 199.368C13.045 199.368 6.90875 195.643 5.97925 185.707H9.08254C10.5601 193.473 14.9854 195.721 21.9734 195.721C27.8726 195.721 31.7573 192.695 31.7573 187.026C31.7573 181.823 29.5057 179.419 20.8069 175.69C11.9599 171.809 8.38633 167.769 8.38633 160.392C8.38633 153.097 14.1337 146.572 23.4473 146.572C30.9055 146.572 36.1048 150.379 37.2714 158.918H34.1644C32.9979 152.63 29.1169 150.223 23.9954 150.223C18.6331 150.223 15.2965 153.482 15.2965 158.296Z" fill="#BB892A"/>
<path fill-rule="evenodd" clip-rule="evenodd" d="M88.2829 147.349H93.0194V180.349C93.0194 193.236 84.7908 199.368 73.7627 199.368C61.1088 199.368 52.9543 193.547 52.9543 179.182V147.349H60.72V179.182C60.72 190.988 66.6969 195.18 74.6959 195.18C81.3728 195.18 88.2829 191.218 88.2829 181.049V147.349Z" fill="#BB892A"/>
<mask id="mask0" mask-type="alpha" maskUnits="userSpaceOnUse" x="0" y="0" width="265" height="200">
<path fill-rule="evenodd" clip-rule="evenodd" d="M0 199.371H264.457V0.386597H0V199.371Z" fill="white"/>
</mask>
<g mask="url(#mask0)">
<path fill-rule="evenodd" clip-rule="evenodd" d="M111.344 198.597H119.184V147.352H111.344V198.597Z" fill="#BB892A"/>
<path fill-rule="evenodd" clip-rule="evenodd" d="M158.63 151.232V198.596H150.786V151.232H132.229V147.351H177.186V151.232H158.63Z" fill="#BB892A"/>
<path fill-rule="evenodd" clip-rule="evenodd" d="M190.23 147.349H219.581V151.23H198.069V171.032H218.026V174.912H198.069V194.714H221.207V198.594H190.23V147.349Z" fill="#BB892A"/>
<path fill-rule="evenodd" clip-rule="evenodd" d="M240.621 158.296C240.621 163.188 242.95 165.751 250.56 169.402C260.033 173.902 264.458 177.397 264.458 185.396C264.458 193.547 257.781 199.368 247.686 199.368C238.369 199.368 232.233 195.643 231.303 185.707H234.407C235.884 193.473 240.31 195.721 247.298 195.721C253.197 195.721 257.081 192.695 257.081 187.026C257.081 181.823 254.83 179.419 246.131 175.69C237.284 171.809 233.711 167.769 233.711 160.392C233.711 153.097 239.458 146.572 248.771 146.572C256.23 146.572 261.429 150.379 262.596 158.918H259.489C258.322 152.63 254.441 150.223 249.32 150.223C243.957 150.223 240.621 153.482 240.621 158.296Z" fill="#BB892A"/>
<path fill-rule="evenodd" clip-rule="evenodd" d="M141.882 125.123H150.499L131.85 80.1881C135.235 79.2882 138.131 77.2552 139.964 74.363L136.69 72.2855C134.883 75.1258 131.591 76.8219 127.877 76.8219C123.747 76.8219 120.533 75.248 118.841 72.3929L115.504 74.3704C117.274 77.3626 120.107 79.3623 123.677 80.2214L106.453 122.334L107.587 125.123H110.046L110.049 125.115C112.619 125.067 114.019 124.127 115.141 123.364C116.108 122.712 116.748 122.279 118.248 122.279C119.748 122.279 120.389 122.712 121.355 123.364C122.511 124.145 123.947 125.119 126.64 125.119C129.332 125.119 130.769 124.145 131.924 123.364C132.88 122.719 133.517 122.29 134.987 122.279L133.457 118.524C131.735 118.809 130.654 119.538 129.747 120.149C128.78 120.805 128.143 121.238 126.64 121.238C125.14 121.238 124.499 120.805 123.533 120.149C122.377 119.368 120.944 118.398 118.248 118.398C115.556 118.398 114.119 119.368 112.964 120.149C112.519 120.453 112.142 120.705 111.719 120.89L125.732 85.4467L141.882 125.123Z" fill="#BB892A"/>
<path fill-rule="evenodd" clip-rule="evenodd" d="M122.798 70.7646L139.996 66.1578L138.992 62.4064L121.794 67.0132L122.798 70.7646Z" fill="#BB892A"/>
</g>
</svg>
