<?xml version="1.0" encoding="UTF-8"?> <svg xmlns="http://www.w3.org/2000/svg" width="45" height="63" viewBox="0 0 45 63" fill="none"><path fill-rule="evenodd" clip-rule="evenodd" d="M35.5915 62.6733H44.2485L25.5134 17.7695C28.9137 16.8703 31.8229 14.8386 33.6644 11.9484L30.3757 9.87231C28.5603 12.7107 25.253 14.4056 21.5216 14.4056C17.3735 14.4056 14.1443 12.8328 12.4442 9.97963L9.09226 11.9558C10.8705 14.9459 13.7165 16.9443 17.3028 17.8028L0 59.8867L1.13839 62.6733H3.60863L3.61235 62.6659C6.1942 62.6178 7.60045 61.6778 8.72768 60.9155C9.69866 60.2642 10.3423 59.8312 11.849 59.8312C13.3557 59.8312 13.9993 60.2642 14.9702 60.9155C16.131 61.6963 17.5744 62.6696 20.279 62.6696C22.9836 62.6696 24.4271 61.6963 25.5878 60.9155C26.5476 60.2716 27.1875 59.8423 28.6644 59.8312L27.128 56.0787C25.3981 56.3637 24.3118 57.0927 23.4003 57.7033C22.4293 58.3583 21.7894 58.7913 20.279 58.7913C18.7723 58.7913 18.1287 58.3583 17.1577 57.7033C15.997 56.9225 14.5573 55.9529 11.849 55.9529C9.14434 55.9529 7.70089 56.9225 6.54018 57.7033C6.09375 58.0068 5.71429 58.2584 5.29018 58.4435L19.3676 23.0245L35.5915 62.6733Z" fill="#BB892A"></path><path fill-rule="evenodd" clip-rule="evenodd" d="M16.4197 8.35238L33.6965 3.74877L32.6883 0L15.4115 4.60362L16.4197 8.35238Z" fill="#BB892A"></path></svg> 