<svg xmlns="http://www.w3.org/2000/svg" viewBox="0 0 49.95 49.94"><title>Asset 2</title><g id="Layer_2" data-name="Layer 2"><g id="design"><path d="M25,40.47a15.5,15.5,0,1,1,11-4.54h0A15.39,15.39,0,0,1,25,40.47Zm0-30A14.5,14.5,0,1,0,35.23,35.23h0A14.51,14.51,0,0,0,25,10.47Z"/><polygon points="9.5 15.13 7 7.63 7.63 7 15.13 9.5 14.81 10.45 8.26 8.26 10.45 14.81 9.5 15.13"/><polygon points="42.31 42.95 34.81 40.45 35.13 39.5 41.68 41.68 39.5 35.13 40.45 34.81 42.95 42.31 42.31 42.95"/><polygon points="40.45 15.13 39.5 14.81 41.68 8.26 35.13 10.45 34.81 9.5 42.31 7 42.95 7.63 40.45 15.13"/><polygon points="7.63 42.95 7 42.31 9.5 34.81 10.45 35.13 8.26 41.68 14.81 39.5 15.13 40.45 7.63 42.95"/><polygon points="7.07 28.95 0 25.42 0 24.52 7.07 20.99 7.52 21.88 1.34 24.97 7.52 28.06 7.07 28.95"/><polygon points="42.87 28.95 42.43 28.06 48.6 24.97 42.43 21.88 42.87 20.99 49.95 24.52 49.95 25.42 42.87 28.95"/><polygon points="28.06 7.52 24.97 1.34 21.89 7.52 20.99 7.07 24.52 0 25.42 0 28.95 7.07 28.06 7.52"/><polygon points="25.42 49.94 24.52 49.94 20.99 42.87 21.89 42.43 24.97 48.6 28.06 42.43 28.95 42.87 25.42 49.94"/></g></g></svg>